<?xml version="1.0" encoding="UTF-8"?>
<svg id="_2024_Jan" data-name="2024 Jan" xmlns="http://www.w3.org/2000/svg" viewBox="0 0 708.66 175.75">
  <defs>
    <style>
      .cls-1 {
        fill: #090e12;
      }

      .cls-1, .cls-2 {
        stroke-width: 0px;
      }

      .cls-2 {
        fill: #febe14;
      }
    </style>
  </defs>
  <g>
    <g>
      <polygon class="cls-1" points="529.48 95.25 518.01 66.6 507.14 66.6 523.7 107.97 513.22 131.03 524.31 131.03 553.58 66.6 542.5 66.6 529.48 95.25"/>
      <path class="cls-1" d="M476.31,111.65c4.8,0,9.27-1.48,12.96-4v1.93c0,6.79-5.52,12.31-12.31,12.31-5.33,0-10.43-1.99-14.36-5.6l-6.83,7.43c5.79,5.33,13.32,8.27,21.19,8.27,12.35,0,22.4-10.05,22.4-22.4v-42.97h-10.09v2.94c-3.7-2.52-8.16-4-12.96-4-12.71,0-23.05,10.34-23.05,23.05s10.34,23.05,23.05,23.05ZM476.31,75.63c7.15,0,12.96,5.81,12.96,12.96s-5.81,12.96-12.96,12.96-12.96-5.81-12.96-12.96,5.81-12.96,12.96-12.96Z"/>
      <rect class="cls-1" x="381.56" y="43.77" width="10.09" height="68.32"/>
      <path class="cls-1" d="M349.2,65.54c-13.18,0-23.9,10.72-23.9,23.9s10.72,23.9,23.9,23.9,23.9-10.72,23.9-23.9-10.72-23.9-23.9-23.9ZM349.2,103.24c-7.61,0-13.81-6.19-13.81-13.81s6.19-13.81,13.81-13.81,13.81,6.19,13.81,13.81-6.19,13.81-13.81,13.81Z"/>
      <path class="cls-1" d="M424.19,65.54c-13.18,0-23.9,10.72-23.9,23.9s10.72,23.9,23.9,23.9,23.9-10.72,23.9-23.9-10.72-23.9-23.9-23.9ZM424.19,103.24c-7.61,0-13.81-6.19-13.81-13.81s6.19-13.81,13.81-13.81,13.81,6.19,13.81,13.81-6.19,13.81-13.81,13.81Z"/>
      <path class="cls-1" d="M298.14,65.94c-4.43,0-8.56,1.32-12.03,3.57v-3h-10.09v45.58h10.09v-24.03c0-6.63,5.4-12.03,12.03-12.03,5.17,0,9.37,4.21,9.37,9.37v26.69h10.09v-26.69c0-10.73-8.73-19.47-19.47-19.47Z"/>
      <path class="cls-1" d="M257.47,85.4v26.69h10.09v-26.69c0-10.73-8.73-19.47-19.47-19.47-4.43,0-8.57,1.32-12.03,3.57v-25.74h-10.09v68.32h10.09v-24.03c0-6.63,5.4-12.03,12.03-12.03,5.17,0,9.37,4.21,9.37,9.37Z"/>
      <path class="cls-1" d="M218.22,105.33l-7.53-6.71c-2.62,2.94-6.38,4.63-10.31,4.63-7.61,0-13.81-6.19-13.81-13.81s6.19-13.81,13.81-13.81c3.93,0,7.69,1.69,10.31,4.63l7.53-6.71c-4.53-5.09-11.04-8-17.84-8-13.18,0-23.9,10.72-23.9,23.9s10.72,23.9,23.9,23.9c6.81,0,13.31-2.92,17.84-8Z"/>
      <path class="cls-1" d="M149.03,103.24c-5.57-.17-10.4-3.79-12.39-8.75h34.7v-5.05c0-13.85-9.2-23.9-21.88-23.9-6.46,0-12.51,2.53-17.03,7.14-4.53,4.6-6.96,10.69-6.86,17.15.21,12.79,10.38,23.11,23.15,23.49.25,0,.5.01.75.01,6.97,0,13.72-2.95,18.61-8.17l-7.36-6.9c-3.08,3.29-7.35,5.1-11.69,4.97ZM139.63,79.76c2.62-2.66,6.11-4.12,9.84-4.12,6.11,0,9.69,3.91,11.09,8.76h-23.95c.67-1.71,1.69-3.28,3.02-4.64Z"/>
      <rect class="cls-2" x="105.8" y="66.6" width="13.74" height="13.03"/>
      <path class="cls-1" d="M120.13,111.99c-15.09,0-27.37-12.28-27.37-27.37v-33.22h13.03v33.22c0,7.9,6.43,14.33,14.33,14.33v13.03Z"/>
    </g>
    <path class="cls-2" d="M575.56,65.54c-13.18,0-23.9,10.72-23.9,23.9s10.72,23.9,23.9,23.9,23.9-10.72,23.9-23.9-10.72-23.9-23.9-23.9ZM575.56,103.24c-7.61,0-13.81-6.19-13.81-13.81s6.19-13.81,13.81-13.81,13.81,6.19,13.81,13.81-6.19,13.81-13.81,13.81Z"/>
    <path class="cls-2" d="M625.21,65.94c-4.43,0-8.56,1.32-12.03,3.57v-3h-10.09v45.58h10.09v-24.03c0-6.63,5.4-12.03,12.03-12.03,5.17,0,9.37,4.21,9.37,9.37v26.69h10.09v-26.69c0-10.73-8.73-19.47-19.47-19.47Z"/>
    <path class="cls-2" d="M671.78,103.24c-5.57-.17-10.4-3.79-12.39-8.75h34.7v-5.05c0-13.85-9.2-23.9-21.88-23.9-6.46,0-12.51,2.53-17.03,7.14-4.53,4.6-6.96,10.69-6.86,17.15.21,12.79,10.38,23.11,23.15,23.49.25,0,.5.01.75.01,6.97,0,13.72-2.95,18.61-8.17l-7.36-6.9c-3.08,3.29-7.35,5.1-11.69,4.97ZM662.37,79.76c2.62-2.66,6.11-4.12,9.84-4.12,6.11,0,9.69,3.91,11.09,8.76h-23.95c.67-1.71,1.69-3.28,3.02-4.64Z"/>
  </g>
  <g>
    <rect class="cls-2" x="45.45" y="78.8" width="18.29" height="45.41"/>
    <path class="cls-1" d="M24.12,78.8v-18.29c11.77,0,21.34-9.57,21.34-21.34h18.29c0,21.85-17.78,39.63-39.63,39.63Z"/>
  </g>
</svg>